# xmcd CD database file
#
# Track frame offsets:
#	150
#	14877
#	30482
#	50980
#	69497
#	87525
#	103650
#	114067
#	135760
#	155525
#	179115
#	191600
#	212907
#
# Disc length: 3039 seconds
#
# Revision: 0
# Processed by: cddbd v1.4PL0 Copyright (c) Steve Scherf et al.
# Submitted via: CDex 1.50Beta7
#
DISCID=ba0bdd0d
DTITLE=Sebastian - Fata Morgana 3
DYEAR=1900
DGENRE=New Age
TTITLE0=Fatamorgana 3
TTITLE1=Connexions
TTITLE2=Himalaya
TTITLE3=Sabine
TTITLE4=Trumpet concerto
TTITLE5=Wedding walz
TTITLE6=Spring in Siberia
TTITLE7=A new world (part 2)
TTITLE8=Full of desire
TTITLE9=Monastery garden
TTITLE10=Dance of the butterfly's
TTITLE11=Coral
TTITLE12=Parade of the tin soldiers
EXTD=
EXTT0=
EXTT1=
EXTT2=
EXTT3=
EXTT4=
EXTT5=
EXTT6=
EXTT7=
EXTT8=
EXTT9=
EXTT10=
EXTT11=
EXTT12=
PLAYORDER=
